{"title":"FEAR THE WALKING DEAD S1 [400p.XVID.MP3] MINIMIZE THE SUCK EDIT","uid":12527863,"size":2010165845,"categoryP":"video","categoryS":"tv_shows","magnet":"?xt=urn:btih:d9869cbbbd263f4e997ebb96cc8d3195a6ba406a&amp;dn=FEAR+THE+WALKING+DEAD+S1+%5B400p.XVID.MP3%5D+MINIMIZE+THE+SUCK+EDIT&amp;tr=udp%3A%2F%2Ftracker.leechers-paradise.org%3A6969&amp;tr=udp%3A%2F%2Fzer0day.ch%3A1337&amp;tr=udp%3A%2F%2Fopen.demonii.com%3A1337&amp;tr=udp%3A%2F%2Ftracker.coppersurfer.tk%3A6969&amp;tr=udp%3A%2F%2Fexodus.desync.com%3A6969","seeders":0,"leechers":1,"uploader":"max_g_force","files":2,"time":1444162033,"description":"I had a theory that the problem with &quot;Fear The Walking Dead&quot; was that the producers took two or three decent episodes and tortuously stretched them out to fill six episodes.\r\n\r\nI think I was right.\r\n\r\nAfter editing out OVER TWO HOURS of bloated, useless garbage, what I ending up with was an okay &quot;Walking Dead&quot; spin off.  \r\n\r\nSpecs:\r\n\r\nFEAR THE WALKING DEAD S1 [400p.XVID.MP3] MINIMIZE THE SUCK EDIT.avi\r\nFormat                      : AVI\r\nFormat/Info                 : Audio Video Interleave\r\nFile size                   : 1.87 GiB\r\nDuration                    : 2h 56mn\r\nOverall bit rate            : 1 517 Kbps\r\nWriting application         : Lavf56.36.100\r\nWriting library             : VirtualDub build 35491/release\r\n\r\nVideo\r\nID                          : 0\r\nFormat                      : MPEG-4 Visual\r\nFormat profile              :   \r\nFormat settings, BVOP       : No\r\nFormat settings, QPel       : No\r\nFormat settings, GMC        : No warppoints\r\nFormat settings, Matrix     : Default (H.263)\r\nCodec ID                    : FMP4\r\nDuration                    : 2h 56mn\r\nBit rate                    : 1 380 Kbps\r\nWidth                       : 720 pixels\r\nHeight                      : 400 pixels\r\nDisplay aspect ratio        : 16:9\r\nFrame rate                  : 23.976 fps\r\nColor space                 : YUV\r\nChroma subsampling          : 4:2:0\r\nBit depth                   : 8 bits\r\nScan type                   : Progressive\r\nCompression mode            : Lossy\r\nBits/(Pixel*Frame)          : 0.200\r\nStream size                 : 1.70 GiB (91%)\r\nWriting library             : XviD 67\r\n\r\nAudio\r\nID                          : 1\r\nFormat                      : MPEG Audio\r\nFormat version              : Version 1\r\nFormat profile              : Layer 3\r\nMode                        : Joint stereo\r\nCodec ID                    : 55\r\nCodec ID/Hint               : MP3\r\nDuration                    : 2h 56mn\r\nBit rate mode               : Constant\r\nBit rate                    : 128 Kbps\r\nChannel(s)                  : 2 channels\r\nSampling rate               : 48.0 KHz\r\nCompression mode            : Lossy\r\nStream size                 : 162 MiB (8%)\r\nAlignment                   : Split accross interleaves\r\nInterleave, duration        : 42 ms (1.00 video frame)\r\nInterleave, preload duratio : 500 ms\r\nWriting library             : LAME3.99r","torrent":{"xt":"urn:btih:d9869cbbbd263f4e997ebb96cc8d3195a6ba406a","amp;dn":"FEAR+THE+WALKING+DEAD+S1+%5B400p.XVID.MP3%5D+MINIMIZE+THE+SUCK+EDIT","amp;tr":["udp%3A%2F%2Ftracker.leechers-paradise.org%3A6969","udp%3A%2F%2Fzer0day.ch%3A1337","udp%3A%2F%2Fopen.demonii.com%3A1337","udp%3A%2F%2Ftracker.coppersurfer.tk%3A6969","udp%3A%2F%2Fexodus.desync.com%3A6969"],"infoHash":"d9869cbbbd263f4e997ebb96cc8d3195a6ba406a","infoHashBuffer":{"type":"Buffer","data":[217,134,156,187,189,38,63,78,153,126,187,150,204,141,49,149,166,186,64,106]},"announce":[],"urlList":[]}}